<?xml version="1.0" encoding="utf-8"?>
<!-- Generator: Adobe Illustrator 19.1.0, SVG Export Plug-In . SVG Version: 6.00 Build 0)  -->
<svg version="1.1" id="Layer_1" xmlns="http://www.w3.org/2000/svg" xmlns:xlink="http://www.w3.org/1999/xlink" x="0px" y="0px"
	 viewBox="120 -119.5 265.6 254.5" style="enable-background:new 120 -119.5 265.6 254.5;" xml:space="preserve">
<style type="text/css">
	.st0{opacity:0.33;fill:#263249;stroke:#FFFFFF;stroke-width:3;stroke-miterlimit:10;enable-background:new    ;}
	.st1{fill:#FEFEFE;}
	.st2{fill:#FFFFFF;}
	.st3{opacity:0.9;}
	.st4{fill:#263249;}
	.st5{opacity:0.75;}
</style>
<g id="Layer_1_1_">
</g>
<g id="Layer_2">
	<path class="st0" d="M255.1,125h-5.9c-65.7,0-119-53.3-119-119l0,0c0-65.7,53.3-119,119-119h5.9c65.7,0,119,53.3,119,119l0,0
		C374,71.7,320.8,125,255.1,125z"/>
	<g>
		<g id="Stand_1_">
			<g>
				<path class="st1" d="M186.1-17.3c0-0.3-0.3-0.6-0.6-0.6h-1.4c-0.3,0-0.6,0.3-0.6,0.6l-1.2,21.2c0,0.4,0.3,0.7,0.6,0.7h3.8
					c0.4,0,0.6-0.3,0.6-0.7L186.1-17.3z"/>
			</g>
		</g>
		<g id="Blades_7_">
			<g>
				<path class="st1" d="M184.8-49.6c-1.2,0-2.7,13.9-3.2,18.9c0.8-0.7,1.8-1.1,3-1.1c1.1,0,2.2,0.4,3,1.1
					C187.2-35.8,186.1-49.6,184.8-49.6z"/>
			</g>
		</g>
		<g id="Blades_3_">
			<g>
				<path class="st1" d="M180.2-23.9c-0.6-0.9-0.8-2-0.7-3.1c-4,3.2-15.1,11.5-14.5,12.5s13.2-5.2,17.7-7.5
					C181.7-22.2,180.8-22.9,180.2-23.9z"/>
			</g>
		</g>
		<g id="Blades_1_">
			<g>
				<path class="st1" d="M190.2-26.9c0.1,1-0.1,2.1-0.7,3.1c-0.6,0.9-1.5,1.6-2.5,1.9c4.5,2.3,17,8.5,17.7,7.5
					C205.3-15.5,194.2-23.8,190.2-26.9z"/>
			</g>
		</g>
		<g id="Center_1_">
			<g>
				<circle class="st1" cx="184.8" cy="-26.8" r="2.7"/>
			</g>
		</g>
	</g>
	<g>
		<g>
			<path class="st2" d="M310.2-41.7c0.3,0,0.4,0,0.6,0c2.8,0,5.7,0,8.5,0.1c1,0,2.1,0.2,3.1,0.5c1.7,0.4,2.8,1.6,3.7,3
				c0.9,1.5,1.8,3,2.7,4.6c1.1-0.6,2.1-1.2,3.3-1.9c-0.1,0.2-0.2,0.4-0.2,0.5c-1.5,2.5-3,5-4.4,7.5c-0.1,0.2-0.3,0.4-0.5,0.4
				c-3.1,0-6.2,0-9.4,0c1.1-0.6,2.1-1.2,3.1-1.8c0-0.1,0-0.1,0-0.2c-1.8-3.1-3.5-6.3-5.6-9.3c-0.9-1.2-1.8-2.3-3.2-3
				C311.3-41.3,310.8-41.5,310.2-41.7z"/>
		</g>
		<g>
			<path class="st2" d="M297.8-3.4c-1.2-2.1-2.4-4.2-3.5-6.3c-0.5-1-1-2-1.5-3.1c-0.9-2-0.7-4,0.4-5.9c0.8-1.3,1.5-2.7,2.3-4
				c0.1-0.2,0.2-0.3,0.3-0.6c-1.1-0.6-2.1-1.2-3.3-1.9c0.3,0,0.4,0,0.5,0c3,0,5.9,0.1,8.9,0.1c0.2,0,0.5,0.1,0.6,0.3
				c1.6,2.6,3.1,5.3,4.6,8c-1.1-0.6-2.1-1.2-3.2-1.8c-2,3.6-4.3,7-5.8,10.9c-0.5,1.4-0.7,2.8-0.2,4.3C297.9-3.5,297.8-3.4,297.8-3.4
				z"/>
		</g>
		<g>
			<path class="st2" d="M321.2-12.9c0,1.3,0,2.5,0,3.7c0.2,0,0.4,0,0.6,0c2.3,0,4.5,0.1,6.8,0c1.7-0.1,3.4-0.2,5.1-0.5
				c1.5-0.2,2.8-0.8,3.8-2c0,0.1,0,0.1,0,0.1c-1.7,2.8-3.4,5.7-5.2,8.5c-0.9,1.4-2,2.5-3.7,2.9c-0.7,0.2-1.4,0.3-2.1,0.3
				c-1.5,0-3.1,0-4.7,0c-0.2,0-0.4,0-0.6,0c0,1.2,0,2.4,0,3.8c-0.2-0.2-0.3-0.3-0.3-0.4c-1.4-2.5-2.9-5.1-4.3-7.7
				c-0.1-0.2-0.1-0.5-0.1-0.6c1.5-2.7,3-5.3,4.5-8C321-12.8,321-12.8,321.2-12.9z"/>
		</g>
		<g>
			<path class="st2" d="M324-23c2.7-1.6,5.4-3.1,8.1-4.7c0.1,0.2,0.2,0.4,0.3,0.5c1.7,3,3.4,6,5.2,8.9c1.4,2.4,0.9,5-1.5,6.6
				c-1.3,0.9-2.7,1.4-4.3,1.3c-0.2,0-0.5-0.1-0.6-0.3C328.8-14.7,326.5-18.8,324-23z"/>
		</g>
		<g>
			<path class="st2" d="M307.2-24.3c-2.7-1.6-5.4-3.1-8.1-4.6c0.1-0.2,0.2-0.4,0.3-0.5c1.7-3,3.5-6,5.2-9c1.3-2.2,3.4-3,5.8-2.2
				c1.7,0.6,3,1.7,4,3.2c0.2,0.3,0.2,0.5,0,0.8c-2.3,4-4.7,8.1-7,12.1C307.4-24.5,307.3-24.4,307.2-24.3z"/>
		</g>
		<g>
			<path class="st2" d="M314.5-9.2c0,3.1,0,6.1,0,9.3c-0.2,0-0.4,0-0.6,0c-3.4,0-6.8,0-10.3,0c-2.5,0-4.6-1.5-5-4.2
				c-0.2-1.7,0-3.2,0.9-4.7c0.2-0.3,0.3-0.4,0.7-0.4c4.6,0,9.3,0,13.9,0C314.2-9.2,314.3-9.2,314.5-9.2z"/>
		</g>
	</g>
	<g>
		<path class="st2" d="M245.5-32.6c6-6,15.9-8,19.5-10.4c-12.8,3.7-18.5,0.9-27.7,8.2c-9.1,7.2-10.3,16-5.5,20.9
			c1.3,1.3,3.1,2.1,5.1,2.3C234.7-17.1,238.5-25.6,245.5-32.6z"/>
		<path class="st2" d="M247-31.6c-7.6,7.6-10.8,17-8.4,22.9c0,0,5.1,10.1,11.9,12.4c0,0,1.9,0,2.8-2.2c0,0-15.5-6.2-9.9-10.7
			c5.6-4.5,20.9-2.3,21.5-15.9c0-16.6,4.1-10.2,6.4-21.5C266.8-40.8,253.5-38.1,247-31.6z"/>
	</g>
	<g>
		<g>
			<path class="st2" d="M278.4,40.6c2-2,5.3-2.7,6.4-3.4c-4.2,1.2-6.1,0.3-9.1,2.7s-3.4,5.3-1.8,6.9c0.4,0.4,1,0.7,1.7,0.8
				C274.9,45.7,276.1,42.9,278.4,40.6z"/>
			<path class="st2" d="M278.9,40.9c-2.5,2.5-3.6,5.6-2.8,7.6c0,0,1.7,3.3,3.9,4.1c0,0,0.6,0,0.9-0.7c0,0-5.1-2.1-3.3-3.5
				c1.9-1.5,6.9-0.8,7.1-5.3c0-5.5,1.3-3.4,2.1-7.1C285.5,37.9,281.1,38.8,278.9,40.9z"/>
		</g>
		<g>
			<g>
				<g>
					<g>
						<path class="st2" d="M294.9,58.8c0,0.5-0.4,1-1,1h-28c-0.5,0-1-0.4-1-1v-28c0-0.5,0.4-1,1-1h28c0.5,0,1,0.4,1,1V58.8z
							 M268.1,55.6c0,0.5,0.4,1,1,1h21.6c0.5,0,1-0.4,1-1V34c0-0.5-0.4-1-1-1h-21.6c-0.5,0-1,0.4-1,1V55.6z"/>
					</g>
				</g>
			</g>
			<g>
				<g>
					<g>
						<rect x="257.1" y="36.3" class="st2" width="9.8" height="2.2"/>
					</g>
					<g>
						<rect x="257.1" y="41.2" class="st2" width="9.8" height="2.2"/>
					</g>
					<g>
						<rect x="257.1" y="46.2" class="st2" width="9.8" height="2.2"/>
					</g>
					<g>
						<rect x="257.1" y="51.2" class="st2" width="9.8" height="2.2"/>
					</g>
				</g>
				<g>
					<g>
						<rect x="293" y="36.3" class="st2" width="9.8" height="2.2"/>
					</g>
					<g>
						<rect x="293" y="41.2" class="st2" width="9.8" height="2.2"/>
					</g>
					<g>
						<rect x="293" y="46.2" class="st2" width="9.8" height="2.2"/>
					</g>
					<g>
						<rect x="293" y="51.2" class="st2" width="9.8" height="2.2"/>
					</g>
				</g>
			</g>
			<g>
				<g>
					<g>
						<rect x="286.3" y="22" class="st2" width="2.2" height="9.8"/>
					</g>
					<g>
						<rect x="281.3" y="22" class="st2" width="2.2" height="9.8"/>
					</g>
					<g>
						<rect x="276.3" y="22" class="st2" width="2.2" height="9.8"/>
					</g>
					<g>
						<rect x="271.4" y="22" class="st2" width="2.2" height="9.8"/>
					</g>
				</g>
				<g>
					<g>
						<rect x="286.3" y="57.9" class="st2" width="2.2" height="9.8"/>
					</g>
					<g>
						<rect x="281.3" y="57.9" class="st2" width="2.2" height="9.8"/>
					</g>
					<g>
						<rect x="276.3" y="57.9" class="st2" width="2.2" height="9.8"/>
					</g>
					<g>
						<rect x="271.4" y="57.9" class="st2" width="2.2" height="9.8"/>
					</g>
				</g>
			</g>
		</g>
	</g>
	<g>
		<g>
			<path class="st2" d="M198.3-65.5h-5.6c-0.5,0-1-0.4-1-1v-8.8c0-0.5,0.4-1,1-1h5.6c0.3,0,0.6,0.3,0.6,0.6c0,0.3-0.3,0.6-0.6,0.6
				h-5.2v3.6h5.1c0.3,0,0.6,0.3,0.6,0.6s-0.3,0.6-0.6,0.6h-5.1v3.7h5.2c0.3,0,0.6,0.3,0.6,0.6S198.6-65.5,198.3-65.5z"/>
			<path class="st2" d="M210.5-65.4c-0.3,0-0.5-0.1-0.7-0.3l-6.1-8.3v8c0,0.4-0.3,0.7-0.7,0.7s-0.7-0.3-0.7-0.7v-9.5
				c0-0.4,0.4-0.8,0.8-0.8c0.3,0,0.5,0.1,0.7,0.4l6,8.1v-7.8c0-0.4,0.3-0.6,0.7-0.6c0.4,0,0.6,0.3,0.6,0.6v9.5
				C211.3-65.8,211-65.4,210.5-65.4z"/>
			<path class="st2" d="M224.2-75.3l-3.7,9.2c-0.2,0.4-0.6,0.7-1.1,0.7l0,0c-0.5,0-0.9-0.3-1.1-0.7l-3.7-9.2c0-0.1,0-0.2,0-0.3
				c0-0.3,0.3-0.7,0.7-0.7c0.3,0,0.5,0.2,0.6,0.4l3.5,8.9l3.5-8.9c0.1-0.3,0.4-0.4,0.6-0.4c0.4,0,0.7,0.3,0.7,0.7
				C224.2-75.5,224.2-75.4,224.2-75.3z"/>
			<path class="st2" d="M228.2-65.4c-0.4,0-0.7-0.3-0.7-0.7v-9.6c0-0.4,0.3-0.6,0.7-0.6c0.4,0,0.6,0.3,0.6,0.6v9.6
				C228.9-65.7,228.6-65.4,228.2-65.4z"/>
			<path class="st2" d="M237.8-69.8l2.3,3.5c0.1,0.1,0.1,0.2,0.1,0.3c0,0.3-0.3,0.6-0.7,0.6c-0.2,0-0.4-0.1-0.5-0.3l-2.6-4h-2.1v3.7
				c0,0.4-0.3,0.7-0.7,0.7s-0.7-0.3-0.7-0.7v-9.2c0-0.5,0.4-1,1-1h3.3c2,0,3.3,1.2,3.3,3.2C240.6-71,239.3-70,237.8-69.8z M234.3-75
				v4.1h2.8c1.3,0,2.1-0.8,2.1-2s-0.9-2-2.1-2L234.3-75L234.3-75z"/>
			<path class="st2" d="M249.1-65.3c-3.2,0-5.3-2.4-5.3-5.5c0-3.1,2.1-5.5,5.3-5.5c3.2,0,5.3,2.4,5.3,5.5
				C254.4-67.7,252.3-65.3,249.1-65.3z M249.1-75.2c-2.4,0-3.9,1.8-3.9,4.3s1.5,4.3,3.9,4.3s3.9-1.9,3.9-4.3
				C253.1-73.3,251.5-75.2,249.1-75.2z"/>
			<path class="st2" d="M266.2-65.4c-0.3,0-0.5-0.1-0.7-0.3l-6.1-8.3v8c0,0.4-0.3,0.7-0.7,0.7c-0.4,0-0.7-0.3-0.7-0.7v-9.5
				c0-0.4,0.4-0.8,0.8-0.8c0.3,0,0.5,0.1,0.7,0.4l6,8.1v-7.8c0-0.4,0.3-0.6,0.7-0.6c0.4,0,0.6,0.3,0.6,0.6v9.5
				C267-65.8,266.6-65.4,266.2-65.4z"/>
			<path class="st2" d="M280.8-65.4c-0.4,0-0.7-0.3-0.7-0.7v-8.2l-3.6,8.7c0,0.1-0.2,0.2-0.3,0.2c-0.1,0-0.3-0.1-0.3-0.2l-3.6-8.7
				v8.2c0,0.4-0.3,0.7-0.7,0.7c-0.4,0-0.7-0.3-0.7-0.7v-9.1c0-0.6,0.5-1.1,1.1-1.1c0.4,0,0.9,0.3,1.1,0.7l3.1,7.4l3.1-7.4
				c0.2-0.4,0.6-0.7,1.1-0.7c0.6,0,1.1,0.5,1.1,1.1v9.1C281.5-65.7,281.2-65.4,280.8-65.4z"/>
			<path class="st2" d="M292.1-65.5h-5.6c-0.5,0-1-0.4-1-1v-8.8c0-0.5,0.4-1,1-1h5.6c0.3,0,0.6,0.3,0.6,0.6c0,0.3-0.3,0.6-0.6,0.6
				h-5.2v3.6h5.1c0.3,0,0.6,0.3,0.6,0.6s-0.3,0.6-0.6,0.6h-5.1v3.7h5.2c0.3,0,0.6,0.3,0.6,0.6S292.4-65.5,292.1-65.5z"/>
			<path class="st2" d="M304.3-65.4c-0.3,0-0.5-0.1-0.7-0.3l-6.1-8.3v8c0,0.4-0.3,0.7-0.7,0.7c-0.4,0-0.7-0.3-0.7-0.7v-9.5
				c0-0.4,0.4-0.8,0.8-0.8c0.3,0,0.5,0.1,0.7,0.4l6,8.1v-7.8c0-0.4,0.3-0.6,0.7-0.6c0.4,0,0.6,0.3,0.6,0.6v9.5
				C305.1-65.8,304.8-65.4,304.3-65.4z"/>
			<path class="st2" d="M316.1-75h-2.9v8.9c0,0.4-0.3,0.7-0.7,0.7c-0.4,0-0.7-0.3-0.7-0.7V-75H309c-0.3,0-0.6-0.3-0.6-0.6
				s0.3-0.6,0.6-0.6h7.1c0.3,0,0.6,0.3,0.6,0.6C316.7-75.2,316.4-75,316.1-75z"/>
		</g>
	</g>
	<g>
		<g>
			<rect x="205" y="69.5" class="st2" width="14" height="1"/>
			<path class="st2" d="M205,72.3c0,1.2,1.8,2.2,3,2.2h9.7c1.2,0,1.4-1,1.4-2.2v-0.8H205V72.3z"/>
			<g>
				<circle class="st2" cx="212" cy="73.8" r="2"/>
			</g>
			<path class="st2" d="M212.8,23.8c-9.3,0-16.9,7.6-16.9,16.9c0,5.8,2.5,10.9,6.9,13.9l2.2,9.7v4.2h14v-4.2l3-9.7
				c4.4-3.1,7.4-8.1,7.4-13.9C229.5,31.3,222.1,23.8,212.8,23.8z"/>
		</g>
		<g class="st3">
			<g>
				<path class="st4" d="M210.4,31.2c0.1,0,0.2,0,0.3,0c1.2,0,2.5,0,3.7,0.1c0.5,0,0.9,0.1,1.4,0.2c0.7,0.2,1.2,0.7,1.6,1.3
					c0.4,0.7,0.8,1.3,1.2,2c0.5-0.3,0.9-0.5,1.4-0.8c0,0.1-0.1,0.2-0.1,0.2c-0.6,1.1-1.3,2.2-2,3.3c0,0.1-0.1,0.2-0.2,0.2
					c-1.4,0-2.7,0-4.1,0c0.5-0.3,0.9-0.5,1.4-0.8v-0.1c-0.8-1.4-1.5-2.8-2.5-4.1c-0.4-0.5-0.8-1-1.4-1.3
					C210.9,31.4,210.7,31.3,210.4,31.2z"/>
			</g>
			<g>
				<path class="st4" d="M205,48c-0.5-0.9-1-1.8-1.5-2.7c-0.2-0.4-0.4-0.9-0.6-1.4c-0.4-0.9-0.3-1.7,0.2-2.6c0.3-0.6,0.7-1.2,1-1.8
					c0-0.1,0.1-0.2,0.1-0.3c-0.5-0.3-0.9-0.5-1.4-0.8c0.1,0,0.2,0,0.2,0c1.3,0,2.6,0,3.9,0c0.1,0,0.2,0.1,0.2,0.1
					c0.7,1.2,1.4,2.3,2,3.5c-0.5-0.3-0.9-0.5-1.4-0.8c-0.9,1.6-1.9,3.1-2.5,4.8C204.9,46.7,204.8,47.3,205,48L205,48z"/>
			</g>
			<g>
				<path class="st4" d="M215.2,43.8c0,0.6,0,1.1,0,1.6c0.1,0,0.2,0,0.2,0c1,0,2,0,3,0c0.7,0,1.5-0.1,2.2-0.2
					c0.7-0.1,1.2-0.4,1.7-0.9c0,0,0,0,0,0.1c-0.8,1.2-1.5,2.5-2.3,3.7c-0.4,0.6-0.9,1.1-1.6,1.3c-0.3,0.1-0.6,0.1-0.9,0.1
					c-0.7,0-1.4,0-2,0c-0.1,0-0.2,0-0.3,0c0,0.5,0,1.1,0,1.7c-0.1-0.1-0.1-0.1-0.1-0.2c-0.6-1.1-1.3-2.2-1.9-3.4
					c0-0.1-0.1-0.2,0-0.3C213.8,46.2,214.5,45.1,215.2,43.8C215.2,43.9,215.2,43.9,215.2,43.8z"/>
			</g>
			<g>
				<path class="st4" d="M216.5,39.4c1.2-0.7,2.4-1.4,3.5-2c0.1,0.1,0.1,0.2,0.1,0.2c0.8,1.3,1.5,2.6,2.3,3.9c0.6,1,0.4,2.2-0.6,2.9
					c-0.6,0.4-1.2,0.6-1.9,0.6c-0.1,0-0.2-0.1-0.2-0.1C218.6,43,217.6,41.2,216.5,39.4z"/>
			</g>
			<g>
				<path class="st4" d="M209.1,38.8c-1.2-0.7-2.3-1.4-3.5-2c0-0.1,0.1-0.2,0.1-0.2c0.8-1.3,1.5-2.6,2.3-4c0.5-1,1.5-1.3,2.5-1
					c0.7,0.3,1.3,0.7,1.7,1.4c0.1,0.1,0.1,0.2,0,0.4c-1,1.8-2.1,3.5-3.1,5.3C209.2,38.7,209.2,38.8,209.1,38.8z"/>
			</g>
			<g>
				<path class="st4" d="M212.3,45.5c0,1.4,0,2.7,0,4.1c-0.1,0-0.2,0-0.3,0c-1.5,0-3,0-4.5,0c-1.1,0-2-0.7-2.2-1.8
					c-0.1-0.7,0-1.4,0.4-2.1c0.1-0.1,0.1-0.2,0.3-0.2c2,0,4.1,0,6.1,0C212.2,45.5,212.2,45.5,212.3,45.5z"/>
			</g>
		</g>
	</g>
</g>
<g id="Layer_3">
	<g class="st5">
		<g>
			<path class="st2" d="M216.3,95.8h-2.9c-0.4,0-0.7-0.3-0.7-0.7v-5.4c0-0.3,0.3-0.6,0.6-0.6s0.6,0.3,0.6,0.6v5.1h2.5
				c0.3,0,0.5,0.2,0.5,0.5C216.8,95.6,216.5,95.8,216.3,95.8z"/>
			<path class="st2" d="M222.9,95.8h-3.4c-0.4,0-0.7-0.3-0.7-0.7v-5.2c0-0.4,0.3-0.7,0.7-0.7h3.4c0.3,0,0.5,0.2,0.5,0.5
				s-0.2,0.5-0.5,0.5H220v1.7h2.9c0.3,0,0.5,0.2,0.5,0.5s-0.2,0.5-0.5,0.5H220v1.8h2.9c0.3,0,0.5,0.2,0.5,0.5
				C223.4,95.6,223.2,95.8,222.9,95.8z"/>
			<path class="st2" d="M230.7,95.8c-0.2,0-0.5-0.1-0.6-0.4l-0.3-0.9h-3l-0.4,0.9c-0.1,0.2-0.3,0.4-0.6,0.4c-0.4,0-0.6-0.3-0.6-0.6
				c0-0.1,0-0.1,0-0.2l2.1-5.3c0.1-0.4,0.5-0.6,0.9-0.6s0.8,0.2,1,0.6l2.1,5.3c0,0.1,0,0.2,0,0.2C231.3,95.5,231.1,95.8,230.7,95.8z
				 M228.2,90.3l-1.2,3.2h2.4L228.2,90.3z"/>
			<path class="st2" d="M236.9,93.2L238,95c0,0.1,0.1,0.2,0.1,0.3c0,0.3-0.2,0.6-0.6,0.6c-0.2,0-0.4-0.1-0.5-0.3l-1.3-2.2h-1.1v1.9
				c0,0.3-0.3,0.6-0.6,0.6c-0.3,0-0.6-0.3-0.6-0.6v-5.4c0-0.4,0.3-0.7,0.7-0.7h2.2c1.3,0,2.2,0.9,2.2,2.1
				C238.4,92.4,237.7,93.1,236.9,93.2z M234.5,90.2v2.1h1.6c0.6,0,1.1-0.4,1.1-1s-0.5-1-1.1-1h-1.6V90.2z"/>
			<path class="st2" d="M245.7,95.8c-0.2,0-0.5-0.1-0.6-0.3l-3.3-4.5v4.2c0,0.3-0.3,0.6-0.6,0.6s-0.6-0.3-0.6-0.6v-5.4
				c0-0.4,0.3-0.8,0.8-0.8c0.2,0,0.5,0.1,0.6,0.3l3.2,4.3v-4.1c0-0.3,0.3-0.6,0.6-0.6c0.3,0,0.6,0.3,0.6,0.6V95
				C246.4,95.5,246.1,95.8,245.7,95.8z"/>
			<path class="st2" d="M258.7,95.8c-0.3,0-0.6-0.3-0.6-0.6v-4.5l-2,4.8c0,0.1-0.2,0.2-0.3,0.2s-0.3-0.1-0.3-0.2l-2-4.8v4.5
				c0,0.3-0.3,0.6-0.6,0.6s-0.6-0.3-0.6-0.6v-5.4c0-0.4,0.3-0.8,0.7-0.8c0.5,0,1,0.1,1.1,0.6l1.6,3.9l1.6-3.9
				c0.1-0.3,0.5-0.6,0.8-0.6c0.5-0.1,1.1,0.2,1.1,0.8v5.4C259.3,95.6,259.1,95.8,258.7,95.8z"/>
			<path class="st2" d="M264.9,95.9c-2,0-3.4-1.5-3.4-3.4s1.4-3.4,3.4-3.4s3.4,1.5,3.4,3.4S266.9,95.9,264.9,95.9z M264.9,90.1
				c-1.3,0-2.2,1-2.2,2.4s0.9,2.4,2.2,2.4s2.2-1,2.2-2.4C267.1,91.1,266.2,90.1,264.9,90.1z"/>
			<path class="st2" d="M274,93.2l1.1,1.8c0.1,0.1,0.1,0.2,0.1,0.3c0,0.3-0.2,0.6-0.6,0.6c-0.2,0-0.4-0.1-0.5-0.3l-1.3-2.2h-1.1v1.9
				c0,0.3-0.3,0.6-0.6,0.6c-0.3,0-0.6-0.3-0.6-0.6v-5.4c0-0.4,0.3-0.7,0.7-0.7h2.2c1.3,0,2.2,0.9,2.2,2.1
				C275.5,92.4,274.8,93.1,274,93.2z M271.6,90.2v2.1h1.6c0.6,0,1.1-0.4,1.1-1s-0.5-1-1.1-1h-1.6V90.2z"/>
			<path class="st2" d="M281.8,95.8h-3.4c-0.4,0-0.7-0.3-0.7-0.7v-5.2c0-0.4,0.3-0.7,0.7-0.7h3.4c0.3,0,0.5,0.2,0.5,0.5
				s-0.2,0.5-0.5,0.5h-2.9v1.7h2.9c0.3,0,0.5,0.2,0.5,0.5s-0.2,0.5-0.5,0.5h-2.9v1.8h2.9c0.3,0,0.5,0.2,0.5,0.5
				C282.3,95.6,282.1,95.8,281.8,95.8z"/>
			<path class="st2" d="M291.8,92.9l-3.7,1.7H288c-0.2,0-0.4-0.2-0.4-0.4c0-0.1,0.1-0.3,0.2-0.3l3.5-1.5l-3.5-1.6
				c-0.2-0.1-0.2-0.2-0.2-0.3c0-0.2,0.2-0.4,0.4-0.4c0,0,0.1,0,0.2,0l3.7,1.7c0.2,0.1,0.3,0.3,0.3,0.5
				C292.1,92.7,292,92.9,291.8,92.9z"/>
		</g>
	</g>
</g>
</svg>
