<?xml version="1.0" encoding="utf-8"?>
<!-- Generator: Adobe Illustrator 19.1.0, SVG Export Plug-In . SVG Version: 6.00 Build 0)  -->
<svg version="1.1" id="Layer_1" xmlns="http://www.w3.org/2000/svg" xmlns:xlink="http://www.w3.org/1999/xlink" x="0px" y="0px"
	 viewBox="222 -56.1 456.6 124.1" style="enable-background:new 222 -56.1 456.6 124.1;" xml:space="preserve">
<style type="text/css">
	.st0{fill:#FFFFFF;}
	.st1{opacity:0.14;}
</style>
<g>
	<g>
		<path class="st0" d="M278.8,22.4c-0.2-0.2-0.4-0.3-0.6-0.4s-0.4-0.2-0.7-0.3v3.9c0.3,0,0.5-0.1,0.7-0.2s0.4-0.2,0.6-0.4
			c0.2-0.2,0.3-0.4,0.4-0.6s0.1-0.5,0.1-0.7c0-0.3-0.1-0.5-0.2-0.7C279.1,22.8,279,22.6,278.8,22.4z"/>
	</g>
	<g>
		<path class="st0" d="M276,15.9c-0.2,0.1-0.4,0.2-0.5,0.3c-0.2,0.1-0.3,0.3-0.4,0.5s-0.1,0.4-0.1,0.7c0,0.3,0,0.5,0.1,0.7
			s0.2,0.4,0.4,0.6c0.2,0.2,0.3,0.3,0.5,0.4s0.4,0.2,0.6,0.3v-3.7C276.4,15.8,276.2,15.8,276,15.9z"/>
	</g>
	<g>
		<circle class="st0" cx="262.3" cy="21.2" r="3.2"/>
	</g>
	<g>
		<g>
			<ellipse class="st0" cx="297.1" cy="24" rx="14.6" ry="3.5"/>
		</g>
		<g>
			<path class="st0" d="M282.5,29.6c0.2,1.9,6.6,3.4,14.6,3.4c7.9,0,14.4-1.5,14.6-3.4l0,0v-3.1c-2.3,1.5-7.8,2.6-14.6,2.6
				c-6.8,0-12.3-1-14.6-2.6V29.6L282.5,29.6z"/>
		</g>
		<g>
			<path class="st0" d="M282.5,35.4c0.4,1.9,6.8,3.3,14.6,3.3c7.8,0,14.1-1.5,14.6-3.3l0,0v-3.3c-2.2,1.5-7.8,2.6-14.6,2.6
				c-6.8,0-12.4-1-14.6-2.6V35.4L282.5,35.4z"/>
		</g>
		<g>
			<path class="st0" d="M282.5,40.9L282.5,40.9c0,2,6.5,3.5,14.6,3.5s14.6-1.6,14.6-3.5l0,0l0,0v-3.1c-2.2,1.5-7.8,2.6-14.6,2.6
				c-6.8,0-12.4-1-14.6-2.6V40.9L282.5,40.9z"/>
		</g>
	</g>
	<g>
		<path class="st0" d="M281.1,31.4h-24.6c-0.5-2.3-2.4-4-4.7-4.2V14.1c2.3-0.2,4.3-2,4.7-4.2h41.2c0.5,2.3,2.4,4,4.7,4.2v5.3
			c0.9,0.1,1.8,0.2,2.7,0.3V8.1c0-0.5-0.4-0.9-0.9-0.9H250c-0.5,0-0.9,0.4-0.9,0.9v25.2c0,0.5,0.4,0.9,0.9,0.9h31.2v-2.8H281.1z"/>
	</g>
	<g>
		<path class="st0" d="M294.5,19.2c-0.6-0.7-1.5-1.2-2.5-1.2c-1.2,0-2.3,0.7-2.8,1.7C291.1,19.4,293,19.3,294.5,19.2z"/>
	</g>
	<g>
		<path class="st0" d="M281.1,24L281.1,24L281.1,24v-0.2l0,0c0.1-1.8,2.3-2.9,5.1-3.6c-0.2-4.9-4.2-8.8-9.1-8.8
			c-5.1,0-9.2,4.1-9.2,9.2s4.1,9.2,9.2,9.2c1.4,0,2.8-0.3,4-0.9V24z"/>
	</g>
</g>
<g>
	<g>
		<path class="st0" d="M463.5-38.5h-24.1c-2.9,0-5.3,2.4-5.3,5.3v48.5c0,2.9,2.4,5.3,5.3,5.3h24.1c2.9,0,5.3-2.4,5.3-5.3v-48.5
			C468.8-36.1,466.4-38.5,463.5-38.5z M446.4-35.3h10.2c0.3,0,0.5,0.2,0.5,0.5s-0.2,0.5-0.5,0.5h-10.2c-0.3,0-0.5-0.2-0.5-0.5
			S446.1-35.3,446.4-35.3z M451.5,18.3c-2,0-3.6-1.6-3.6-3.6s1.6-3.6,3.6-3.6s3.6,1.6,3.6,3.6S453.5,18.3,451.5,18.3z M464.8,8.7
			h-26.6v-40.5h26.7V8.7H464.8z"/>
	</g>
	<g>
		<path class="st0" d="M455.1-18.8c-0.4-0.3-0.8-0.6-1.3-0.8c-0.5-0.2-1-0.4-1.5-0.6v-4.6c0.5,0.1,0.9,0.3,1.2,0.6s0.5,0.7,0.5,1.2
			v0.4c0.2,0,0.4,0,0.5,0c0.2,0,0.4,0,0.5-0.1c0.2,0,0.3-0.1,0.5-0.2c0.1-0.1,0.3-0.2,0.3-0.3c0.1-0.1,0.1-0.3,0.1-0.5
			c0-0.4-0.1-0.8-0.4-1c-0.3-0.3-0.6-0.5-1-0.6s-0.8-0.2-1.2-0.3c-0.4,0-0.8-0.1-1.1-0.1v-1.7l-1,0.1v1.6c-0.5,0.1-1,0.2-1.5,0.3
			c-0.5,0.2-0.9,0.4-1.2,0.7c-0.4,0.3-0.6,0.7-0.8,1.1c-0.2,0.4-0.3,0.9-0.3,1.5s0.1,1.1,0.3,1.5s0.5,0.8,0.9,1.1s0.8,0.6,1.3,0.8
			c0.5,0.2,1,0.4,1.5,0.6v4.9c-0.7,0-1.2-0.2-1.5-0.6c-0.3-0.3-0.5-0.8-0.5-1.5v-0.4c-0.2,0-0.4,0-0.6,0s-0.4,0-0.6,0.1
			c-0.2,0-0.3,0.1-0.5,0.2c-0.1,0.1-0.3,0.2-0.3,0.4c-0.1,0.1-0.1,0.3-0.1,0.5c0,0.5,0.1,0.9,0.4,1.2c0.3,0.3,0.6,0.5,1.1,0.7
			c0.4,0.2,0.8,0.3,1.3,0.3c0.5,0.1,0.8,0.1,1.2,0.1h0.1v1.6l0.9-0.2v-1.5c0.6-0.1,1.1-0.2,1.6-0.4c0.5-0.2,0.9-0.4,1.3-0.8
			c0.4-0.3,0.7-0.7,0.9-1.2c0.2-0.5,0.3-1,0.3-1.6c0-0.6-0.1-1.1-0.3-1.5C455.8-18.1,455.5-18.5,455.1-18.8z M450.6-20.9
			c-0.2-0.1-0.5-0.3-0.6-0.5c-0.2-0.2-0.3-0.4-0.4-0.6s-0.2-0.5-0.2-0.9c0-0.3,0.1-0.5,0.2-0.8c0.1-0.2,0.2-0.4,0.4-0.6
			c0.2-0.2,0.4-0.3,0.6-0.4s0.5-0.2,0.8-0.2v4.3C451-20.6,450.8-20.8,450.6-20.9z M454.3-14.7c-0.1,0.3-0.3,0.5-0.5,0.7
			s-0.4,0.4-0.7,0.5c-0.3,0.1-0.5,0.2-0.8,0.3v-4.6c0.3,0.1,0.5,0.2,0.8,0.4c0.3,0.1,0.5,0.3,0.7,0.5s0.4,0.4,0.5,0.6
			s0.2,0.5,0.2,0.8C454.4-15.2,454.4-15,454.3-14.7z"/>
	</g>
	<g>
		<path class="st0" d="M452.1,3.4l2.7-4.7c0-0.1,0-0.1-0.1-0.1h-1.4c-0.1-2.6-1.9-4.8-4.4-5.4c1.1,1,1.8,2.5,1.8,4.1
			c0,0.4-0.1,0.8-0.1,1.3h-1.3c-0.1,0-0.1,0-0.1,0.1l2.7,4.7C452,3.5,452,3.5,452.1,3.4z"/>
	</g>
</g>
<path class="st0" d="M624-3.9c-14.9,0-27,12.1-27,27c0,14.9,12.1,27,27,27s27-12.1,27-27C651,8.2,638.9-3.9,624-3.9z M624,41.8
	c-7.4,0-11.2-7.5-11.2-7.5S618.1,38,624,38c7.6,0,11.2-3.7,11.2-3.7S633.2,41.8,624,41.8z M644.9,17.2c0,0-0.2,0.1-0.5,0.1
	c0,1.7-0.1,4.3-0.7,6.5c-1,3.3-3.2,4.9-7.2,4.9h-1.8c-5.3,0-8.9-6.6-8.9-8.2v-0.2c-0.6-0.9-1.2-1.5-1.8-1.5h0.2
	c-0.6-0.1-1.3,0.5-1.8,1.3v0.3c0,1.6-3.5,8.2-8.9,8.2h-1.8c-4,0-6.3-1.6-7.2-4.9c-0.6-2.2-0.7-4.8-0.7-6.5c-0.3-0.1-0.5-0.1-0.5-0.1
	c-2.2,0-2.2-3.3,0-3.3c0,0,2.6-0.3,8.3,0c3.4,0.1,6.3,1.6,12.5,1.6c6.3,0,8.9-1.6,12.5-1.6c5.3,0,8.3,0,8.3,0
	C647,13.8,647,17.1,644.9,17.2z"/>
<g class="st1">
	<path class="st0" d="M373.9-11.2l6.2,6.3c-1.4,0.1-3.1,0.2-5.1,0.4c-1.3,0.2-2.7,0.3-4.1,0.5c-1.5,0.2-3,0.3-4.6,0.7
		c-1.6,0.3-3.2,0.6-4.8,1c-1.6,0.4-3.3,0.9-4.9,1.3c-1.6,0.5-3.2,1.2-4.8,1.7c-1.5,0.8-3.1,1.4-4.4,2.2c-0.7,0.4-1.4,0.8-2,1.2
		c-0.7,0.4-1.2,0.9-1.8,1.4c-0.3,0.2-0.6,0.5-0.9,0.7s-0.5,0.5-0.8,0.7c-0.5,0.5-1,0.9-1.4,1.5c-0.4,0.5-0.8,1-1.1,1.5
		c-0.3,0.5-0.6,1-0.8,1.4c-0.5,0.9-0.8,1.8-1,2.5s-0.3,1.3-0.3,1.7c0,0.4,0,0.6,0,0.6s0-0.2,0.1-0.6s0.2-1,0.5-1.6
		c0.2-0.7,0.7-1.5,1.2-2.3c0.3-0.4,0.6-0.9,0.9-1.3c0.4-0.4,0.8-0.9,1.2-1.3c0.4-0.5,0.9-0.8,1.4-1.3c0.3-0.2,0.5-0.4,0.8-0.7
		c0.3-0.2,0.6-0.4,0.9-0.6c0.6-0.4,1.2-0.8,1.8-1.2c0.7-0.3,1.3-0.7,2-1c1.4-0.7,2.9-1.2,4.4-1.8c1.6-0.4,3.2-0.9,4.8-1.3
		c1.6-0.3,3.3-0.6,4.9-0.9c1.6-0.2,3.2-0.4,4.8-0.6c1.5-0.2,3-0.3,4.5-0.3c1.4-0.1,2.8-0.2,4-0.2c1.9,0,3.6,0,4.9,0L374,5.4h7
		l8.2-8.3l-8.2-8.3C381-11.2,373.9-11.2,373.9-11.2z"/>
	<path class="st0" d="M566-2l-6-4l1.8,8.9c-0.6-0.4-1.4-0.8-2.2-1.2c-0.5-0.3-1.1-0.6-1.7-1c-0.6-0.3-1.3-0.6-2-1
		c-1.4-0.7-2.9-1.4-4.5-2.2c-1.6-0.7-3.3-1.4-5.1-2.2s-3.7-1.4-5.6-2.1c-1.9-0.7-3.9-1.2-5.9-1.8c-2-0.6-4-1-6-1.4s-3.9-0.7-5.8-1
		c-1.9-0.2-3.8-0.4-5.5-0.4c-1.8-0.1-3.4-0.1-4.9,0c-1.5,0.1-2.9,0.2-4.2,0.3c-1.2,0.1-2.3,0.3-3.2,0.5c-1.7,0.4-2.7,0.7-2.7,0.7
		s1-0.3,2.7-0.5c0.9-0.1,1.9-0.2,3.2-0.3c1.2-0.1,2.6-0.1,4.1,0c1.5,0.1,3.1,0.1,4.9,0.4c1.7,0.1,3.5,0.5,5.4,0.8
		c1.8,0.4,3.7,0.8,5.6,1.3c1.9,0.6,3.8,1.1,5.7,1.8s3.8,1.3,5.6,2.2c1.8,0.8,3.6,1.5,5.3,2.4s3.3,1.7,4.8,2.5
		c1.5,0.9,2.9,1.7,4.2,2.5c0.6,0.4,1.3,0.7,1.9,1.1s1.1,0.7,1.6,1.1c0.7,0.4,1.2,0.8,1.8,1.2l-8.7,1.7l6,4l11.8-2.4L566-2z"/>
</g>
</svg>
