<?xml version="1.0" encoding="utf-8"?>
<!-- Generator: Adobe Illustrator 19.1.0, SVG Export Plug-In . SVG Version: 6.00 Build 0)  -->
<svg version="1.1" id="Layer_1" xmlns="http://www.w3.org/2000/svg" xmlns:xlink="http://www.w3.org/1999/xlink" x="0px" y="0px"
	 viewBox="-82 379 153.3 144" style="enable-background:new -82 379 153.3 144;" xml:space="preserve">
<style type="text/css">
	.st0{fill:#FFFFFF;}
	.st1{fill:none;stroke:#FFFFFF;stroke-width:3;stroke-miterlimit:10;}
	.st2{opacity:0.55;}
	.st3{fill:#F86F4E;}
	.st4{fill:#F86F4E;stroke:#FFFFFF;stroke-width:3;stroke-miterlimit:10;}
</style>
<g>
	<g id="Card_3_">
		<g>
			<path class="st0" d="M40.1,442.7l-17.4-42.6c-1.2-2.9-4.6-4.4-7.5-3.2l-69.1,28.2c-2.9,1.2-4.4,4.6-3.2,7.5l17.4,42.6
				c1.2,2.9,4.6,4.4,7.5,3.2L37,450.2C39.9,449,41.3,445.6,40.1,442.7z"/>
		</g>
		<g>
			<path class="st1" d="M40.1,442.7l-17.4-42.6c-1.2-2.9-4.6-4.4-7.5-3.2l-69.1,28.2c-2.9,1.2-4.4,4.6-3.2,7.5l17.4,42.6
				c1.2,2.9,4.6,4.4,7.5,3.2L37,450.2C39.9,449,41.3,445.6,40.1,442.7z"/>
		</g>
	</g>
	<g id="Name_strip_2_" class="st2">
		<g>
			<path class="st3" d="M-43,451.9l2.1,5.2l50.6-20.6l-2.1-5.2L-43,451.9z M26.2,423.7l-10.6,4.4l2.1,5.2l10.6-4.3L26.2,423.7z"/>
		</g>
	</g>
	<g id="Hologram_2_" class="st2">
		<g>
			
				<rect x="-36.7" y="461.5" transform="matrix(0.9261 -0.3773 0.3773 0.9261 -177.8003 23.8346)" class="st3" width="17.2" height="8.6"/>
		</g>
	</g>
	<g id="Black_Strip_2_">
		<g>
			
				<rect x="-56.5" y="418.5" transform="matrix(0.9261 -0.3773 0.3773 0.9261 -161.6081 26.4008)" class="st3" width="86.2" height="14.4"/>
		</g>
	</g>
</g>
<circle class="st4" cx="16.1" cy="476.8" r="28.8"/>
<g>
	<path class="st0" d="M7.7,477.3c-4.4,0-7.2-3-7.2-7s2.9-7.2,7.2-7.2c4.4,0,7.2,3.2,7.2,7.2C15,474.3,12.1,477.3,7.7,477.3z
		 M7.7,474c2,0,3.4-1.5,3.4-3.7c0-2.4-1.4-3.8-3.4-3.8c-1.9,0-3.4,1.4-3.4,3.8C4.4,472.6,5.8,474,7.7,474z M8.4,491.7
		c-0.3,0.4-0.7,0.6-1.1,0.6c-0.8,0-1.4-0.6-1.4-1.3c0-0.3,0.1-0.5,0.2-0.7L22.9,464c0.3-0.4,0.7-0.6,1.1-0.6c0.7,0,1.4,0.6,1.4,1.4
		c0,0.2-0.1,0.5-0.2,0.7L8.4,491.7z M23.4,492.6c-4.4,0-7.2-3.1-7.2-7c0-4,2.9-7.2,7.2-7.2s7.2,3.2,7.2,7.2
		C30.6,489.5,27.7,492.6,23.4,492.6z M23.4,489.2c2,0,3.4-1.4,3.4-3.7c0-2.3-1.5-3.8-3.4-3.8c-2,0-3.4,1.5-3.4,3.8
		C20,487.8,21.4,489.2,23.4,489.2z"/>
</g>
</svg>
