<?xml version="1.0" encoding="utf-8"?>
<!-- Generator: Adobe Illustrator 19.1.0, SVG Export Plug-In . SVG Version: 6.00 Build 0)  -->
<svg version="1.1" id="Layer_1" xmlns="http://www.w3.org/2000/svg" xmlns:xlink="http://www.w3.org/1999/xlink" x="0px" y="0px"
	 viewBox="120 -119.5 265.6 254.5" style="enable-background:new 120 -119.5 265.6 254.5;" xml:space="preserve">
<style type="text/css">
	.st0{opacity:0.33;fill:#263249;stroke:#FFFFFF;stroke-width:3;stroke-miterlimit:10;enable-background:new    ;}
	.st1{opacity:0.75;}
	.st2{fill:#FFFFFF;}
</style>
<g id="Layer_1_1_">
</g>
<g id="Layer_2">
</g>
<g id="Layer_3">
	<path class="st0" d="M255.3,125h-5.9c-65.7,0-119-53.3-119-119l0,0c0-65.7,53.3-119,119-119h5.9c65.7,0,119,53.3,119,119l0,0
		C374.3,71.7,321,125,255.3,125z"/>
	<g class="st1">
		<g>
			<path class="st2" d="M216.3,95.8h-2.9c-0.4,0-0.7-0.3-0.7-0.7v-5.4c0-0.3,0.3-0.6,0.6-0.6s0.6,0.3,0.6,0.6v5.1h2.5
				c0.3,0,0.5,0.2,0.5,0.5C216.8,95.6,216.5,95.8,216.3,95.8z"/>
			<path class="st2" d="M222.9,95.8h-3.4c-0.4,0-0.7-0.3-0.7-0.7v-5.2c0-0.4,0.3-0.7,0.7-0.7h3.4c0.3,0,0.5,0.2,0.5,0.5
				s-0.2,0.5-0.5,0.5H220v1.7h2.9c0.3,0,0.5,0.2,0.5,0.5s-0.2,0.5-0.5,0.5H220v1.8h2.9c0.3,0,0.5,0.2,0.5,0.5
				C223.4,95.6,223.2,95.8,222.9,95.8z"/>
			<path class="st2" d="M230.7,95.8c-0.2,0-0.5-0.1-0.6-0.4l-0.3-0.9h-3l-0.4,0.9c-0.1,0.2-0.3,0.4-0.6,0.4c-0.4,0-0.6-0.3-0.6-0.6
				c0-0.1,0-0.1,0-0.2l2.1-5.3c0.1-0.4,0.5-0.6,0.9-0.6s0.8,0.2,1,0.6l2.1,5.3c0,0.1,0,0.2,0,0.2C231.3,95.5,231.1,95.8,230.7,95.8z
				 M228.2,90.3l-1.2,3.2h2.4L228.2,90.3z"/>
			<path class="st2" d="M236.9,93.2L238,95c0,0.1,0.1,0.2,0.1,0.3c0,0.3-0.2,0.6-0.6,0.6c-0.2,0-0.4-0.1-0.5-0.3l-1.3-2.2h-1.1v1.9
				c0,0.3-0.3,0.6-0.6,0.6c-0.3,0-0.6-0.3-0.6-0.6v-5.4c0-0.4,0.3-0.7,0.7-0.7h2.2c1.3,0,2.2,0.9,2.2,2.1
				C238.4,92.4,237.7,93.1,236.9,93.2z M234.5,90.2v2.1h1.6c0.6,0,1.1-0.4,1.1-1s-0.5-1-1.1-1h-1.6V90.2z"/>
			<path class="st2" d="M245.7,95.8c-0.2,0-0.5-0.1-0.6-0.3l-3.3-4.5v4.2c0,0.3-0.3,0.6-0.6,0.6s-0.6-0.3-0.6-0.6v-5.4
				c0-0.4,0.3-0.8,0.8-0.8c0.2,0,0.5,0.1,0.6,0.3l3.2,4.3v-4.1c0-0.3,0.3-0.6,0.6-0.6c0.3,0,0.6,0.3,0.6,0.6V95
				C246.4,95.5,246.1,95.8,245.7,95.8z"/>
			<path class="st2" d="M258.7,95.8c-0.3,0-0.6-0.3-0.6-0.6v-4.5l-2,4.8c0,0.1-0.2,0.2-0.3,0.2s-0.3-0.1-0.3-0.2l-2-4.8v4.5
				c0,0.3-0.3,0.6-0.6,0.6s-0.6-0.3-0.6-0.6v-5.4c0-0.4,0.3-0.8,0.7-0.8c0.5,0,1,0.1,1.1,0.6l1.6,3.9l1.6-3.9
				c0.1-0.3,0.5-0.6,0.8-0.6c0.5-0.1,1.1,0.2,1.1,0.8v5.4C259.3,95.6,259.1,95.8,258.7,95.8z"/>
			<path class="st2" d="M264.9,95.9c-2,0-3.4-1.5-3.4-3.4s1.4-3.4,3.4-3.4s3.4,1.5,3.4,3.4S266.9,95.9,264.9,95.9z M264.9,90.1
				c-1.3,0-2.2,1-2.2,2.4s0.9,2.4,2.2,2.4s2.2-1,2.2-2.4C267.1,91.1,266.2,90.1,264.9,90.1z"/>
			<path class="st2" d="M274,93.2l1.1,1.8c0.1,0.1,0.1,0.2,0.1,0.3c0,0.3-0.2,0.6-0.6,0.6c-0.2,0-0.4-0.1-0.5-0.3l-1.3-2.2h-1.1v1.9
				c0,0.3-0.3,0.6-0.6,0.6c-0.3,0-0.6-0.3-0.6-0.6v-5.4c0-0.4,0.3-0.7,0.7-0.7h2.2c1.3,0,2.2,0.9,2.2,2.1
				C275.5,92.4,274.8,93.1,274,93.2z M271.6,90.2v2.1h1.6c0.6,0,1.1-0.4,1.1-1s-0.5-1-1.1-1h-1.6V90.2z"/>
			<path class="st2" d="M281.8,95.8h-3.4c-0.4,0-0.7-0.3-0.7-0.7v-5.2c0-0.4,0.3-0.7,0.7-0.7h3.4c0.3,0,0.5,0.2,0.5,0.5
				s-0.2,0.5-0.5,0.5h-2.9v1.7h2.9c0.3,0,0.5,0.2,0.5,0.5s-0.2,0.5-0.5,0.5h-2.9v1.8h2.9c0.3,0,0.5,0.2,0.5,0.5
				C282.3,95.6,282.1,95.8,281.8,95.8z"/>
			<path class="st2" d="M291.8,92.9l-3.7,1.7H288c-0.2,0-0.4-0.2-0.4-0.4c0-0.1,0.1-0.3,0.2-0.3l3.5-1.5l-3.5-1.6
				c-0.2-0.1-0.2-0.2-0.2-0.3c0-0.2,0.2-0.4,0.4-0.4c0,0,0.1,0,0.2,0l3.7,1.7c0.2,0.1,0.3,0.3,0.3,0.5
				C292.1,92.7,292,92.9,291.8,92.9z"/>
		</g>
	</g>
	<g>
		<path class="st2" d="M312.4,50.9c0-2-2-2.9-3.7-2.6l-2,0.3l-0.4-1.8c-0.4-1.8-1.9-3-3.8-2.7c-1.7,0.3-2.8,2.3-2.7,3.9l0.3,3.5
			l0.4,6.1l5.9-1.8l3.4-1C311.3,54.4,312.4,52.6,312.4,50.9z"/>
		<g>
			<g id="Bubbles_10_">
				<g>
					<circle class="st2" cx="287.8" cy="54.5" r="2.2"/>
				</g>
			</g>
			<g id="Bubbles_7_">
				<g>
					<circle class="st2" cx="288.8" cy="39.4" r="1.3"/>
				</g>
			</g>
			<g id="Bubbles_5_">
				<g>
					<circle class="st2" cx="287.8" cy="47.2" r="1"/>
				</g>
			</g>
			<path class="st2" d="M298.9,25.5l-1.5-1.5h-17.7l-1.5,1.5V30h0.4v35.5c0,4.1,4.8,7.5,8.9,7.5c4.1,0,9.1-3.3,9.1-7.5V30h2.3V25.5z
				 M293.6,61.9c0,4.8-0.8,6.4-6,6.4s-6-1.6-6-6.3V29.8h12V61.9z"/>
		</g>
	</g>
	<g>
		<g>
			<path class="st2" d="M205.1-36.2h-16.5l6.2,6.2l-7.1,7.1L177.6-33l0,0c0,0,0,0-0.1,0c-0.2-0.2-0.5-0.3-0.7-0.3
				c-0.3,0-0.6,0.1-0.8,0.3l-13.9,13.9c-0.4,0.4-0.4,1.1,0,1.5l3.1,3.1c0.4,0.4,1.1,0.4,1.5,0l10.1-10l10.1,10
				c0.1,0.1,0.2,0.2,0.4,0.2c0.4,0.2,0.9,0.1,1.2-0.2l3.1-3.1l7.9-7.9l5.7,5.7L205.1-36.2L205.1-36.2z"/>
		</g>
		<g>
			<path class="st2" d="M168.4,2.9c0.2,0,0.5-0.2,0.5-0.5v-15.3c0-0.2-0.1-0.3-0.3-0.1l-1.5,1.5c-0.2,0.2-0.5,0.4-0.7,0.5h-0.7
				c-0.2-0.1-0.6-0.3-0.7-0.5l-1.2-1.2c-0.2-0.2-0.3-0.1-0.3,0.1v15c0,0.2,0.2,0.5,0.5,0.5H168.4z"/>
		</g>
		<g>
			<path class="st2" d="M177.5,2.9c0.2,0,0.5-0.2,0.5-0.5v-22.1c0-0.2-0.1-0.6-0.3-0.8l-0.5-0.5c-0.2-0.2-0.5-0.2-0.6,0l-3.7,3.7
				c-0.2,0.2-0.3,0.5-0.3,0.8v19c0,0.2,0.2,0.5,0.5,0.5L177.5,2.9L177.5,2.9z"/>
		</g>
		<g>
			<path class="st2" d="M186.5,2.9c0.2,0,0.5-0.2,0.5-0.5v-13.1c0-0.2,0-0.5,0-0.5s-0.2-0.2-0.4-0.4l-4.7-4.7
				c-0.2-0.2-0.3-0.1-0.3,0.1V2.5c0,0.2,0.2,0.5,0.5,0.5L186.5,2.9L186.5,2.9z"/>
		</g>
		<g>
			<path class="st2" d="M195.6,2.9c0.2,0,0.5-0.2,0.5-0.5v-20.8c0-0.2-0.1-0.3-0.3-0.1l-3.9,3.9c-0.2,0.2-0.5,0.5-0.6,0.6l-0.3,0.3
				c-0.2,0.2-0.3,0.5-0.3,0.8V2.5c0,0.2,0.2,0.5,0.5,0.5L195.6,2.9L195.6,2.9z"/>
		</g>
		<g>
			<path class="st2" d="M204.6,2.9c0.2,0,0.5-0.2,0.5-0.5v-18.5c0-0.2-0.1-0.6-0.3-0.8l-4.8-4.8c-0.2-0.2-0.3-0.1-0.3,0.1v24
				c0,0.2,0.2,0.5,0.5,0.5C200.2,2.9,204.6,2.9,204.6,2.9z"/>
		</g>
	</g>
	<g>
		<g>
			<path class="st2" d="M268-9.9c0,0,0-0.2-0.3-1c-0.2-0.6-0.4-1.2-0.7-1.7c-0.3-0.6-0.7-1.2-1.2-1.7c-0.4-0.4-0.8-0.8-1.3-1.2
				c-0.5-0.4-1.1-0.7-1.6-1c-0.7-0.3-1.5-0.6-2.2-0.7c-0.5-0.1-0.5-0.1-0.5-0.1c-0.1,0-0.1,0-0.2,0c2-1.1,3.4-3.2,3.4-5.6
				c0-3.5-2.8-6.4-6.4-6.4c-3.5,0-6.4,2.8-6.4,6.4c0,2.5,1.4,4.6,3.4,5.6c-0.3,0-0.5,0-0.7,0c0,0,0,0-0.7,0.2
				c-0.6,0.1-1.1,0.3-1.6,0.6c-0.6,0.3-1.1,0.6-1.6,1s-1,0.8-1.4,1.3c-0.3,0.3-0.5,0.7-0.8,1.1c-0.2,0.4-0.4,0.8-0.6,1.2
				c-0.2,0.5-0.4,1-0.5,1.5C246-9.8,246-9.8,246-9.8c0,0.7-0.1,1.8-0.1,2.4s0,1.6,0,2.2s0,1.2,0,1.3c0,0.1,0.6,0.7,1.4,0.9
				c0,0,0.4,0.2,1.4,0.4c2.6,0.8,5.5,1.2,8.6,1.2c2.8,0,5.5-0.4,8.1-1c0.9-0.2,1.1-0.3,1.1-0.3c0.8-0.3,1.4-0.6,1.4-0.8
				c0-0.2,0-1.3,0-2.1c0-0.8,0-1.8,0-2.2C268.1-8,268.1-9,268-9.9z"/>
		</g>
		<g>
			<path class="st2" d="M280.4-15.2c0,0,0-0.2-0.3-1c-0.2-0.6-0.4-1.2-0.7-1.7c-0.3-0.6-0.7-1.2-1.2-1.7c-0.4-0.4-0.8-0.8-1.3-1.2
				c-0.5-0.4-1.1-0.7-1.6-1c-0.7-0.3-1.5-0.6-2.2-0.7c-0.5-0.1-0.5-0.1-0.5-0.1c-0.1,0-0.1,0-0.2,0c2-1.1,3.4-3.2,3.4-5.6
				c0-3.5-2.8-6.4-6.4-6.4c-3.2,0-5.8,2.4-6.3,5.4c2,1.4,3.3,3.7,3.3,6.2c0,0.1,0,0.2,0,0.3c0,0,0.1,0,0.1,0.1h-0.1
				c-0.1,1.7-0.8,3.4-1.9,4.6c0.2,0.1,0.5,0.2,0.7,0.3c0.7,0.3,1.3,0.7,1.9,1.1c0.5,0.4,1,0.8,1.4,1.3c0.5,0.6,1,1.2,1.4,1.9
				c0.3,0.6,0.6,1.3,0.8,1.9s0.3,1,0.3,1.3c0.1,0.9,0.1,1.9,0.1,2.3v1.1c2.4-0.1,4.7-0.4,6.8-1c0.9-0.2,1.1-0.3,1.1-0.3
				c0.8-0.3,1.4-0.6,1.4-0.8c0-0.2,0-1.3,0-2.1c0-0.8,0-1.8,0-2.2C280.5-13.3,280.5-14.3,280.4-15.2z"/>
		</g>
		<g>
			<path class="st2" d="M243-7.3c0-0.6,0-1.7,0.1-2.4v-0.1l0.2-0.7c0.1-0.6,0.3-1.2,0.5-1.7c0.2-0.5,0.4-1,0.7-1.4
				c0.3-0.4,0.6-0.8,0.9-1.2c0.5-0.5,1-1,1.5-1.5c0.6-0.4,1.2-0.8,1.8-1.1c0.3-0.1,0.5-0.2,0.8-0.3c-1.1-1.3-1.8-2.9-1.9-4.7
				c0,0,0,0-0.1,0c0,0,0,0,0.1,0c0-0.1,0-0.2,0-0.3c0-2.6,1.3-4.9,3.3-6.2c-0.4-3.1-3.1-5.4-6.3-5.4c-3.5,0-6.4,2.8-6.4,6.4
				c0,2.5,1.4,4.6,3.4,5.6c-0.3,0-0.5,0-0.7,0c0,0,0,0-0.7,0.2c-0.6,0.1-1.1,0.3-1.6,0.6c-0.6,0.3-1.1,0.6-1.6,1s-1,0.8-1.4,1.3
				c-0.3,0.3-0.5,0.7-0.8,1.1c-0.2,0.4-0.4,0.8-0.6,1.2c-0.2,0.5-0.4,1-0.5,1.5c-0.1,0.6-0.1,0.6-0.1,0.6c0,0.7-0.1,1.8-0.1,2.4
				s0,1.6,0,2.2s0,1.2,0,1.3c0,0.1,0.6,0.7,1.4,0.9c0,0,0.4,0.2,1.4,0.4c2.1,0.6,4.3,1,6.5,1.1v-0.8H243z"/>
		</g>
	</g>
	<g>
		<rect x="198.3" y="31.3" class="st2" width="44.2" height="11"/>
		<rect x="198.3" y="50.2" class="st2" width="44.2" height="11"/>
	</g>
	<g>
		<g>
			<path class="st2" d="M325.2-35.2c-0.4-0.2-1-0.2-1.4,0L300-23c-0.4,0.2-0.4,0.5,0,0.7l23.8,12.2c0.4,0.2,1,0.2,1.4,0L349-22.3
				c0.4-0.2,0.4-0.5,0-0.7L325.2-35.2z"/>
		</g>
		<g>
			<path class="st2" d="M341.8-16.1v-1.3l-15.7,8.7c-0.6,0.3-1.2,0.4-1.6,0.4c-0.4,0-1-0.1-1.6-0.4l-15.3-8.5v1l0,0
				c0,0.1,0,0.1,0.1,0.2l-0.1-0.1v6.2l0,0l0,0c0,4,7.7,7.2,17.1,7.2c9.4,0,17.1-3.2,17.1-7.2l0,0l0,0V-16.1L341.8-16.1
				C341.7-15.9,341.8-16,341.8-16.1L341.8-16.1z"/>
		</g>
		<g>
			<path class="st2" d="M346.4-14.8c-0.1,0-0.2-0.1-0.2-0.2v-8.3c0-0.1-0.1-0.2-0.2-0.2h-0.8c-0.1,0-0.2,0.1-0.2,0.2v8.3
				c0,0.1-0.1,0.2-0.2,0.2h-0.6c-0.1,0-0.2,0.1-0.2,0.2v4.6c0,0.1,0.1,0.2,0.2,0.2h2.7c0.1,0,0.2-0.1,0.2-0.2v-4.6
				c0-0.1-0.1-0.2-0.2-0.2H346.4z"/>
		</g>
	</g>
	<g>
		<g>
			<path class="st2" d="M228.6-65.5c-1.6,0-2.8-0.5-3.7-1.3c-0.1-0.1-0.2-0.3-0.2-0.5c0-0.3,0.2-0.7,0.6-0.7c0.1,0,0.3,0,0.4,0.1
				c0.7,0.7,1.8,1.2,3,1.2c1.9,0,2.5-1,2.5-1.8c0-2.8-6.3-1.2-6.3-5c0-1.8,1.6-3,3.7-3c1.4,0,2.6,0.4,3.4,1.1
				c0.1,0.1,0.2,0.3,0.2,0.5c0,0.3-0.3,0.6-0.6,0.6c-0.1,0-0.3,0-0.4-0.1c-0.8-0.6-1.8-0.9-2.7-0.9c-1.3,0-2.2,0.7-2.2,1.7
				c0,2.4,6.3,1,6.3,5C232.5-67,231.5-65.5,228.6-65.5z"/>
			<path class="st2" d="M241-65.5c-3.2,0-5.3-2.4-5.3-5.5s2.1-5.5,5.3-5.5c3.2,0,5.3,2.4,5.3,5.5S244.1-65.5,241-65.5z M241-75.3
				c-2.4,0-3.9,1.8-3.9,4.3s1.5,4.3,3.9,4.3s3.9-1.9,3.9-4.3C244.9-73.5,243.4-75.3,241-75.3z"/>
			<path class="st2" d="M258.6-75c0.1,0.1,0.2,0.3,0.2,0.5c0,0.3-0.3,0.6-0.6,0.6c-0.2,0-0.3-0.1-0.4-0.2c-0.6-0.8-1.7-1.2-2.7-1.2
				c-2.3,0-4.1,1.8-4.1,4.3s1.8,4.3,4.1,4.3c1,0,2-0.4,2.7-1.2c0.1-0.1,0.3-0.2,0.4-0.2c0.4,0,0.6,0.3,0.6,0.7
				c0,0.2-0.1,0.3-0.2,0.4c-0.8,0.9-2,1.5-3.6,1.5c-3.1,0-5.5-2.2-5.5-5.5c0-3.3,2.4-5.5,5.5-5.5C256.6-76.5,257.8-75.9,258.6-75z"
				/>
			<path class="st2" d="M263-65.6c-0.4,0-0.7-0.3-0.7-0.7v-9.6c0-0.4,0.3-0.6,0.7-0.6s0.6,0.3,0.6,0.6v9.6
				C263.7-65.8,263.4-65.6,263-65.6z"/>
			<path class="st2" d="M275.9-65.6c-0.3,0-0.5-0.2-0.6-0.4l-0.8-2h-5.3l-0.8,2c-0.1,0.3-0.4,0.4-0.6,0.4c-0.4,0-0.7-0.3-0.7-0.7
				c0-0.1,0-0.2,0-0.3l3.7-9.2c0.2-0.4,0.6-0.7,1.1-0.7s0.9,0.3,1.1,0.7l3.7,9.2c0,0.1,0,0.2,0,0.3
				C276.6-65.9,276.4-65.6,275.9-65.6z M271.8-75l-2.3,5.7h4.5L271.8-75z"/>
			<path class="st2" d="M285.7-65.7h-4.8c-0.5,0-1-0.4-1-1v-9.2c0-0.4,0.3-0.6,0.7-0.6c0.4,0,0.6,0.3,0.6,0.6v8.9h4.5
				c0.3,0,0.6,0.3,0.6,0.6C286.3-65.9,286.1-65.7,285.7-65.7z"/>
		</g>
	</g>
</g>
</svg>
